**ABCDEFGHIJKLMNOPQRSTUVWXYZabcdefghijklmnopqrstuvwxyz**************************
**PARASOLID !"#$%&'()*+,-./:;<=>?@[\]^_`{|}~0123456789**************************
**PART1;
MC=unknown;
MC_MODEL=unknown;
MC_ID=unknown;
OS=unknown;
OS_RELEASE=unknown;
FRU=Parasolid 36.0.180;
APPL=Onshape;
SITE=unknown;
USER=unknown;
FORMAT=text;
GUISE=transmit;
KEY=BTGapi::writeModels_.xmt;
FILE=BTGapi::writeModels_.xmt;
DATE=2024-09-10T09:10:19 (UTC);
**PART2;
SCH=SCH_3600180_36001;
USFLD_SIZE=0;
**PART3;
**END_OF_HEADER*****************************************************************
T51 : TRANSMIT FILE created by modeller version 360018023 SCH_3600180_36001_1300
6231 0 12 36 CCCI7 lattice222 0 CCCI4 mesh1006 0 I8 polyline1008 0 CCCCCCCDI5 ow
ner1040 0 CCCI16 boundary_lattice222 0 CCCI13 boundary_mesh1006 0 I17 boundary_p
olyline1008 0 CCCA16 index_map_offset0 0 1 dA9 index_map82 0 A17 node_id_index_m
ap82 0 A20 schema_embedding_map82 0 A5 child12 0 A14 lowest_node_id0 0 1 dA16 me
sh_offset_data206 0 Z1 1839 2 3 0 0 0 0 0 0 0 1e3 1e-8 0 4 5 1 0 1 1 6 0 7 8 9 0
 0 10 11 12 0 0 0 0 0 0 0 81 255 1 2 1820 13 1 14 0 0 0 15 70 11 CI9 list_type0
 0 1 uI10 notransmit0 0 1 lCCCDCCDI12 finger_index0 0 1 dI12 finger_block1012 0
 CZ3 0 4 T1 0 0 5 20 1 16 16 13 255 6 174 0 1 0 17 0 0 18 0 51 255 7 173 0 19 20
 0 0 --.00625 .00625 .003 0 0 -1 .00625 -1 0 0 30 255 8 419 0 11 21 0 0 -4799554
42570946e-19 .0070230722676084 -.02 0 0 1 29 255 9 413 0 12 22 0 .00702307226760
84 479955442570959e-19 -.001 19 9 CCCCCCI5 frame230 0 CA5 owner12 0 Z10 86 0 1 1
8 0 23 0 V0 16 255 11 417 24 ?25 0 26 8 0 0 1 18 255 12 411 27 28 0 29 9 ?1 81 1
 27 1484 30 12 0 0 31 32 33 17 255 28 0 34 35 35 12 36 37 0 38 -18 29 396 32 39
 12 40 22 ?1 81 1 32 1485 30 29 0 0 27 41 42 17 39 0 43 44 44 29 45 46 0 47 +18
 40 265 48 49 29 50 51 ?1 29 22 398 0 29 51 9 3126980715974355e-20 .005625584442
33265 -.001 29 51 269 0 40 52 22 -1734723475976805e-33 -.00625 0 29 52 205 0 50
 53 51 -867361737988404e-33 .00625 0 18 50 204 54 55 40 56 52 ?1 29 53 255 0 56
 57 52 .00625 -3469446951953615e-33 0 18 56 233 58 59 50 60 53 ?1 29 57 321 0 60
 61 53 -.00625 -1734723475976805e-33 0 18 60 299 62 63 56 64 57 ?1 29 61 1297 0
 64 65 57 479955442570959e-19 .0070230722676084 0 18 64 800 66 67 60 68 61 ?1 29
 65 1298 0 68 69 61 .0070230722676084 479955442570959e-19 0 18 68 820 70 71 64 7
2 65 ?1 29 69 1302 0 72 73 65 479955442570959e-19 .0070230722676084 -.001 18 72
 819 31 35 68 74 69 ?1 29 73 1313 0 74 75 69 3126980715974225e-20 .0056255844423
3265 -1084202172485504e-34 18 74 1019 76 77 72 78 73 ?1 29 75 1314 0 78 79 73 .0
0562558444233267 3126980715972145e-20 -1084202172485504e-34 18 78 1017 80 81 74
 82 75 ?1 29 79 1319 0 82 0 75 .00562558444233265 3126980715974355e-20 -.001 18
 82 1044 41 44 78 0 79 ?1 81 1 41 1486 30 82 0 0 32 83 84 17 44 0 43 39 39 82 85
 86 0 45 -15 255 43 1100 0 39 87 0 17 85 0 88 89 90 29 44 86 0 0 +16 86 397 91 ?
85 92 93 94 0 0 1 17 45 0 95 81 47 82 39 46 0 90 -15 95 1096 0 47 96 0 17 81 0 9
5 77 45 78 90 92 0 97 +17 47 0 95 45 77 29 89 98 0 85 +16 46 944 99 ?39 100 101
 102 0 0 1 17 90 0 88 85 103 82 81 92 0 0 -15 88 409 0 104 17 0 17 103 0 88 90 1
05 78 106 107 0 0 -16 92 400 108 ?81 98 86 109 0 0 1 81 1 108 1482 30 92 0 0 110
 31 111 16 98 402 110 ?47 112 92 113 0 0 1 30 109 401 0 92 94 113 0 +.0056255844
4233265 312698071597427e-19 -.02 0 0 1 31 255 94 399 0 86 114 109 0 -.00625 .006
25 -.001 0 0 1 1 0 0 .00625 30 113 404 0 98 109 115 0 -312698071597427e-19 .0056
2558444233265 -.02 0 0 1 31 115 414 0 112 113 21 0 -.00625 .00625 -.001 0 0 1 1
 0 0 .00625 16 112 412 116 ?117 26 98 115 0 0 1 30 21 416 0 26 115 8 0 +.0070230
722676084 479955442570946e-19 -.02 0 0 1 16 26 415 118 ?119 11 112 21 0 0 1 81 1
 118 1480 30 26 0 0 24 110 120 17 119 0 88 105 117 68 38 26 0 121 +17 105 0 88 1
03 119 56 121 93 0 122 -17 117 0 88 119 25 12 35 112 0 0 +17 38 0 123 36 71 12 1
19 26 0 117 -17 121 0 124 125 59 68 105 93 0 0 +15 124 1425 0 59 126 127 17 125
 0 124 128 121 64 71 129 0 104 +17 59 0 124 121 130 56 131 132 0 106 +16 93 208
 133 ?121 86 134 135 136 107 1 81 1 133 1474 30 93 0 0 137 66 138 16 134 382 137
 ?128 93 139 135 107 136 1 31 135 253 0 136 140 141 0 +.00625 .00625 0 0 0 1 1 0
 0 .00625 16 136 223 142 ?143 144 107 135 134 93 1 16 107 372 145 ?106 136 146 1
35 93 134 1 81 1 145 1472 30 107 0 0 142 137 147 17 106 0 148 49 97 56 103 107 0
 105 +16 146 289 149 ?150 107 151 140 151 151 1 81 1 149 333 30 146 0 0 48 152 1
53 17 150 0 148 55 49 60 154 146 0 155 +16 151 294 152 ?130 146 156 140 146 146
 1 31 140 319 0 146 157 135 0 +-.00625 -.00625 0 0 0 1 1 0 0 .00625 30 157 1268
 0 129 158 140 0 +.0636440537879337 -.0565729859760683 0 -.707106781186548 .7071
06781186548 0 16 129 713 159 ?125 160 37 157 0 0 1 30 158 1271 0 37 161 157 0 +.
0636440537879337 -.0565729859760683 -.001 -.707106781186548 .707106781186548 0 1
6 37 758 162 ?36 129 100 158 0 0 1 30 161 1281 0 100 102 158 0 +.062936947006747
2 -.0572800927572548 -1084202172485504e-34 -.707106781186548 .707106781186548 0
 16 100 992 163 ?77 37 46 161 0 0 1 30 102 1282 0 46 164 161 0 +.062936947006747
2 -.0572800927572548 -.001 -.707106781186548 .707106781186548 0 31 164 1777 0 10
1 165 102 0 -.00964386947453022 .00964386947453022 .003 0 0 1 1 0 0 .0011303 16
 101 1606 166 ?167 46 168 164 0 0 1 31 165 1778 0 168 169 164 0 --.015 -.015 .00
3 0 0 1 1 0 0 .0011303 16 168 1636 170 ?171 101 172 165 0 0 1 31 169 1779 0 172
 173 165 0 --.015 .015 .003 0 0 1 1 0 0 .0011303 16 172 1666 174 ?175 168 176 16
9 0 0 1 31 173 1780 0 176 177 169 0 -.015 .015 .003 0 0 1 1 0 0 .0011303 16 176
 1696 178 ?179 172 180 173 0 0 1 31 177 1781 0 180 181 173 0 -.015 -.015 .003 0
 0 1 1 0 0 .0011303 16 180 1726 83 ?182 176 183 177 0 0 1 31 181 1782 0 183 184
 177 0 +.015 -.015 -433680868994202e-33 0 0 1 1 0 0 .0011303 16 183 1729 185 ?18
6 180 187 181 0 0 1 31 184 1784 0 188 189 181 0 +.00964386947453022 .00964386947
453022 -433680868994202e-33 0 0 1 1 0 0 .0011303 16 188 1609 190 ?191 192 0 184
 0 0 1 31 189 1786 0 192 193 184 0 +-.015 -.015 -433680868994202e-33 0 0 1 1 0 0
 .0011303 16 192 1639 194 ?195 196 188 189 0 0 1 31 193 1788 0 196 197 189 0 +-.
015 .015 -433680868994202e-33 0 0 1 1 0 0 .0011303 16 196 1669 198 ?199 187 192
 193 0 0 1 31 197 1790 0 187 0 193 0 +.015 .015 -433680868994202e-33 0 0 1 1 0 0
 .0011303 16 187 1699 200 ?201 183 196 197 0 0 1 81 1 200 1807 30 187 0 0 185 19
8 202 17 201 0 203 201 201 0 204 187 0 0 +15 203 1526 0 201 126 205 17 204 0 206
 204 204 0 201 187 0 0 -15 206 1717 0 204 207 0 14 255 207 1713 208 ?209 210 211
 6 212 +0 0 209 210 23 81 1 208 1836 213 207 214 0 215 216 217 14 209 1683 216 ?
218 207 219 6 220 +0 0 218 207 23 14 210 1743 215 ?207 221 222 6 223 +0 0 207 22
1 23 15 211 1716 0 224 207 206 51 212 1775 0 207 0 220 0 -.015 .015 0 0 0 1 .001
1303 1 0 0 13 23 87 0 0 0 0 0 0 10 17 14 17 235 225 ?226 0 227 6 228 +0 0 226 0
 23 81 1 225 1821 213 17 229 0 0 230 231 14 226 301 230 ?232 17 233 6 234 +0 0 2
32 17 23 15 227 387 0 235 17 88 51 228 250 0 17 234 236 0 +.00625 .00625 -.02 0
 0 1 .00625 1 0 0 51 234 316 0 226 237 228 0 +-.00625 -.00625 -.02 0 0 1 .00625
 1 0 0 50 255 236 3 0 238 228 239 0 +0 0 .003 0 0 1 1 0 0 14 238 1 240 ?126 241
 242 6 236 +0 0 126 241 23 50 239 155 0 126 236 243 0 +0 0 0 0 0 1 1 0 0 14 126
 125 244 ?245 238 246 6 239 -232 232 245 238 23 51 243 171 0 241 239 20 0 -0 155
530143491714e-32 .003 0 0 -1 .0254 -1 0 0 14 241 160 247 ?238 19 248 6 243 -0 0
 238 19 23 51 20 172 0 249 243 7 0 -.00625 -.00625 .003 0 0 -1 .00625 -1 0 0 14
 249 164 250 ?19 232 251 6 20 +0 0 19 232 23 81 1 250 1824 213 249 252 0 253 254
 255 14 19 168 254 ?241 249 256 6 7 +0 0 241 249 23 14 232 272 253 ?249 226 148
 6 239 -126 126 249 226 23 15 251 163 0 257 249 258 17 257 0 251 257 257 0 259 2
60 0 0 +15 258 165 0 122 249 0 17 122 0 258 131 131 56 49 261 0 0 -17 131 0 258
 122 122 40 59 132 0 0 -17 49 0 148 150 106 40 122 261 0 154 +16 261 143 262 ?49
 263 132 264 132 132 1 81 1 262 1449 30 261 0 0 265 266 267 16 263 139 268 ?269
 270 261 271 0 0 1 16 132 266 272 ?59 261 273 264 261 261 1 31 264 157 0 261 274
 271 0 +.00625 -.00625 0 0 0 1 1 0 0 .00625 31 274 158 0 273 275 264 0 +-.00625
 .00625 0 0 0 1 1 0 0 .00625 31 271 156 0 263 264 276 0 +0 155530143491714e-32 0
 0 0 1 1 0 0 .0254 32 255 276 362 0 160 271 114 0 --.00625 -.00625 -.00883883476
483185 .5 .5 -.707106781186548 .5 .5 .707106781186547 .00883883476483184 .00625
 16 160 1146 277 ?278 156 129 276 0 0 1 32 114 389 0 156 276 94 0 -.00625 .00625
 -.00824234676208373 -.482245665158298 -.482245665158298 -.73135370161917 -.5171
45161860798 -.517145161860798 .681998360062499 .00854579663186623 .00625 16 156
 1149 266 ?235 151 160 114 0 0 1 81 1 266 1450 30 156 0 0 262 116 279 17 235 0 2
27 235 235 0 280 156 0 0 +17 280 0 281 280 280 0 235 156 0 0 -15 281 1215 0 280
 282 0 14 282 1212 283 ?96 245 281 6 284 +0 0 96 245 23 81 1 283 1830 213 282 28
5 0 286 287 288 14 96 1093 287 ?87 282 95 6 289 -0 0 87 282 23 14 245 1208 286 ?
282 126 290 6 237 +0 0 282 126 23 50 284 1239 0 282 291 237 0 +.068004398767165
 -.052212640996837 -.01041289148206986 -.482245665158298 -.482245665158298 -.731
35370161917 -.834844321592274 0 .550486111273606 50 291 1244 0 292 293 284 0 +.0
636440537879337 -.0565729859760683 -5e-4 .707106781186548 .707106781186548 0 -.7
07106781186548 .707106781186548 0 50 237 1238 0 245 284 234 0 +.0524733757211968
 -.0677436640428051 -.01079772442288298 .5 .5 -.707106781186548 -.81649658092772
6 0 -.577350269189626 14 292 860 294 ?221 87 123 6 291 +0 0 221 87 23 50 293 124
7 0 221 289 291 0 +.0689243905833478 -.0512926491806541 -.001 0 0 1 1 0 0 14 221
 872 295 ?210 292 34 6 293 +0 0 210 292 23 50 289 1252 0 96 296 293 0 +.06293694
70067472 -.0572800927572548 -5e-4 .707106781186548 .707106781186548 0 -.70710678
1186548 .707106781186548 0 50 296 1253 0 87 223 289 0 +.0621600133443989 -.05805
70264196031 -.001 0 0 1 1 0 0 14 87 1097 297 ?292 96 43 6 296 +0 0 292 96 23 51
 223 1763 0 210 298 296 0 -.015 -.015 0 0 0 1 .0011303 1 0 0 51 298 1766 0 299 3
00 223 0 -.00964386947453022 .00964386947453022 0 0 0 1 .0011303 1 0 0 14 299 16
23 301 ?0 218 302 6 298 +0 0 0 218 23 51 300 1769 0 218 220 298 0 --.015 -.015 0
 0 0 1 .0011303 1 0 0 14 218 1653 303 ?299 209 304 6 300 +0 0 299 209 23 51 220
 1772 0 209 212 300 0 --.015 .015 0 0 0 1 .0011303 1 0 0 81 1 303 1838 213 218 3
05 0 216 301 306 15 304 1656 0 307 218 308 17 307 0 304 307 307 0 171 168 0 0 -1
5 308 1657 0 309 218 0 17 309 0 308 309 309 0 195 192 0 0 -17 195 0 310 195 195
 0 309 192 0 0 +15 310 1540 0 195 126 311 15 311 1533 0 199 126 203 17 199 0 311
 199 199 0 312 196 0 0 +17 312 0 313 312 312 0 199 196 0 0 -15 313 1687 0 312 20
9 0 17 171 0 314 171 171 0 307 168 0 0 +15 314 1571 0 171 238 315 15 315 1565 0
 175 238 316 17 175 0 315 175 175 0 317 172 0 0 +15 316 1559 0 179 238 318 17 17
9 0 316 179 179 0 224 176 0 0 +15 318 1553 0 182 238 319 17 182 0 318 182 182 0
 320 180 0 0 +15 319 100 0 321 238 322 17 321 0 319 321 321 0 323 270 0 0 -15 32
2 6 0 259 238 324 17 259 0 322 259 259 0 257 260 0 0 -15 324 19 0 325 238 0 17 3
25 0 324 325 325 0 326 139 0 0 +17 326 0 248 326 326 0 325 139 0 0 -16 139 60 32
7 ?325 134 260 275 0 0 1 81 1 327 190 30 139 0 0 328 329 330 16 260 40 328 ?257
 139 270 331 0 0 1 31 275 62 0 139 331 274 0 +0 155530143491714e-32 .003 0 0 1 1
 0 0 .0254 31 331 42 0 260 141 275 0 +.00625 -.00625 .003 0 0 1 1 0 0 .00625 31
 141 37 0 270 135 331 0 +-.00625 .00625 .003 0 0 1 1 0 0 .00625 16 270 35 332 ?3
23 260 263 141 0 0 1 81 1 332 186 30 270 0 0 0 328 333 17 323 0 256 323 323 0 32
1 270 0 0 +15 256 167 0 323 19 334 15 334 169 0 335 19 0 17 335 0 334 155 155 50
 63 273 0 0 -17 155 0 334 335 335 60 55 144 0 0 -17 63 0 124 130 128 60 335 273
 0 336 +16 273 149 337 ?63 132 144 274 144 144 1 81 1 337 1469 30 273 0 0 268 27
2 338 16 144 261 265 ?55 273 136 274 273 273 1 81 1 265 1448 30 144 0 0 152 262
 339 17 55 0 148 143 150 50 155 144 0 128 +15 148 271 0 55 232 0 17 143 0 148 97
 55 74 340 136 0 0 +17 128 0 124 63 125 50 104 134 0 340 +17 104 0 88 25 340 64
 128 134 0 0 -17 340 0 88 104 89 50 143 136 0 335 -17 89 0 88 340 85 74 47 98 0
 143 -17 25 0 88 117 104 72 67 11 0 0 +17 67 0 123 71 36 64 25 11 0 125 -15 123
 863 0 71 292 0 17 71 0 123 38 67 68 125 129 0 119 -17 36 0 123 67 38 72 28 37 0
 25 +17 97 0 148 106 143 78 77 100 0 103 -17 77 0 95 47 81 74 97 100 0 89 +80 7
 CCCCCDI12 legal_owners0 17 1 lCZ1 30 341 342 9000 0 0 0 0 3 6 0 0 0 FFTFTFTTFFF
FFFFFF1 81 1 152 334 30 151 0 0 149 265 343 82 255 3 339 13 0 1 82 3 343 8 3 1 7
9 255 9 342 BTI/DetId81 1 268 1468 30 263 0 0 344 337 345 81 1 272 1470 30 132 0
 0 337 142 346 82 3 338 13 11 1 81 1 142 1471 30 136 0 0 272 145 347 82 3 346 13
 12 1 82 3 347 13 13 1 81 1 344 1467 30 226 0 230 229 268 348 82 3 345 13 10 1 8
1 1 230 1822 213 226 344 0 225 253 349 81 1 229 1466 30 17 0 225 350 344 351 82
 3 348 13 9 2 81 1 350 1465 30 96 0 287 352 229 353 82 3 351 13 8 2 81 1 287 183
1 213 96 350 0 283 297 354 81 1 352 1464 30 87 0 297 355 350 356 82 3 353 13 7 2
 81 1 297 1832 213 87 352 0 287 294 357 81 1 355 1463 30 292 0 294 358 352 359 8
2 3 356 13 6 2 81 1 294 1833 213 292 355 0 297 295 360 81 1 358 1462 30 221 0 29
5 285 355 361 82 3 359 13 5 2 81 1 295 1834 213 221 358 0 294 215 362 81 1 285 1
461 30 282 0 283 363 358 364 82 3 361 13 4 2 81 1 363 1460 30 245 0 286 365 285
 366 82 3 364 13 3 2 81 1 286 1829 213 245 363 0 244 283 367 81 1 365 1458 30 23
2 0 253 99 363 368 82 3 366 13 2 2 81 1 253 1823 213 232 365 0 230 250 369 81 1
 99 1457 30 46 0 0 163 365 370 82 3 368 13 0 2 81 1 163 1456 30 100 0 0 162 99 3
71 82 3 370 13 9 1 81 1 162 1455 30 37 0 0 159 163 372 82 3 371 13 8 1 81 1 159
 1454 30 129 0 0 277 162 373 82 3 372 13 7 1 81 1 277 1453 30 160 0 0 91 159 374
 82 3 373 13 6 1 81 1 91 1452 30 86 0 0 116 277 375 82 3 374 13 5 1 81 1 116 145
1 30 112 0 0 266 91 376 82 3 375 13 4 1 82 3 376 13 3 1 80 1 213 0 377 8001 0 0
 0 0 3 5 0 0 0 FFFFTFTFFFFFFFFFF2 83 255 3 369 .623529411764706 .666666666666667
 .701960784313725 79 15 377 SDL/TYSA_COLOUR81 1 244 1828 213 126 378 0 240 286 3
79 83 3 367 .623529411764706 .666666666666667 .701960784313725 81 1 378 1817 30
 126 0 244 380 0 381 81 1 240 1827 213 238 380 0 247 244 382 83 3 379 .623529411
764706 .666666666666667 .701960784313725 81 1 380 1816 30 238 0 240 383 378 384
 81 1 247 1826 213 241 385 0 254 240 386 83 3 382 .623529411764706 .666666666666
667 .701960784313725 81 1 385 195 30 241 0 247 252 387 388 81 1 254 1825 213 19
 329 0 250 247 389 83 3 386 .623529411764706 .666666666666667 .701960784313725 8
1 1 329 191 30 19 0 254 327 252 390 83 3 389 .623529411764706 .666666666666667 .
701960784313725 81 1 252 194 30 249 0 250 329 385 391 82 3 390 6 0 2 82 3 391 6
 3 2 81 1 387 324 30 1 0 392 385 54 393 82 3 388 6 4 2 81 1 392 1818 394 1 387 1
4 0 0 395 81 1 54 325 30 50 0 0 387 58 396 82 3 393 6 0 3 81 1 58 326 30 56 0 0
 54 62 397 82 3 396 8 0 0 81 1 62 327 30 60 0 0 58 48 398 82 3 397 8 1 0 81 1 48
 328 30 40 0 0 62 149 399 82 3 398 8 2 0 82 3 399 8 3 0 80 1 394 400 401 8038 0
 0 0 0 0 0 0 0 0 TTTTTTTTTTTTTFTFT10 81 1 14 1819 400 1 392 2 0 0 402 98 255 12
 395 113 117 97 100 114 97 110 116 95 71 76 86 80 1 400 403 404 8017 0 0 0 0 0 0
 0 0 0 TTTTTTTTTTTTTFTFT3 84 255 12 402 quadrant_GLV79 13 404 SDL/TYSA_NAME79 14
 401 SDL/TYSA_UNAME81 1 383 1815 30 299 0 301 305 380 405 82 3 384 15 5 2 81 1 3
01 1839 213 299 383 0 303 0 406 81 1 305 1814 30 218 0 303 407 383 408 82 3 405
 15 4 2 81 1 407 1813 30 209 0 216 214 305 409 82 3 408 15 3 2 81 1 216 1837 213
 209 407 0 208 303 410 81 1 214 1812 30 207 0 208 411 407 412 82 3 409 15 2 2 81
 1 411 1811 30 210 0 215 190 214 413 82 3 412 15 1 2 81 1 215 1835 213 210 411 0
 295 208 414 81 1 190 1810 30 188 0 0 194 411 415 82 3 413 15 0 2 81 1 194 1809
 30 192 0 0 198 190 416 82 3 415 15 9 1 81 1 198 1808 30 196 0 0 200 194 417 82
 3 416 15 8 1 82 3 417 15 7 1 83 3 414 .623529411764706 .666666666666667 .701960
784313725 83 3 410 .623529411764706 .666666666666667 .701960784313725 83 3 406 .
623529411764706 .666666666666667 .701960784313725 82 3 381 15 6 2 83 3 362 .6235
29411764706 .666666666666667 .701960784313725 83 3 360 .623529411764706 .6666666
66666667 .701960784313725 83 3 357 .623529411764706 .666666666666667 .7019607843
13725 83 3 354 .623529411764706 .666666666666667 .701960784313725 83 3 349 .6235
29411764706 .666666666666667 .701960784313725 17 130 0 124 59 63 40 336 151 0 13
1 +17 336 0 233 154 154 60 130 151 0 150 -15 233 305 0 154 226 418 17 154 0 233
 336 336 40 150 146 0 130 -15 418 360 0 278 226 0 17 278 0 418 278 278 0 419 160
 0 0 +17 419 0 290 419 419 0 278 160 0 0 -15 290 1211 0 419 245 0 81 1 328 188 3
0 260 0 0 332 327 420 82 3 333 6 1 1 82 3 420 6 3 1 82 3 330 6 5 1 15 248 159 0
 326 241 421 15 421 161 0 269 241 0 17 269 0 421 269 269 0 422 263 0 0 +17 422 0
 127 422 422 0 269 263 0 0 -15 127 137 0 422 126 0 17 320 0 222 320 320 0 182 18
0 0 0 -15 222 1746 0 320 210 423 15 423 1747 0 424 210 0 17 424 0 423 424 424 0
 186 183 0 0 -17 186 0 205 186 186 0 424 183 0 0 +15 205 1519 0 186 126 124 17 2
24 0 211 224 224 0 179 176 0 0 -17 317 0 219 317 317 0 175 172 0 0 -15 219 1686
 0 317 209 313 83 3 306 .623529411764706 .666666666666667 .701960784313725 15 30
2 1626 0 425 299 426 17 425 0 302 425 425 0 167 101 0 0 -15 426 1627 0 427 299 0
 17 427 0 426 427 427 0 191 188 0 0 -17 191 0 246 191 191 0 427 188 0 0 +15 246
 1547 0 191 126 310 17 167 0 242 167 167 0 425 101 0 0 +15 242 1577 0 167 238 31
4 15 34 875 0 28 221 0 83 3 288 .623529411764706 .666666666666667 .7019607843137
25 82 3 279 13 2 1 82 3 267 13 1 1 83 3 255 .623529411764706 .666666666666667 .7
01960784313725 83 3 231 .623529411764706 .666666666666667 .701960784313725 83 3
 217 .623529411764706 .666666666666667 .701960784313725 81 1 185 1806 30 183 0 0
 166 200 428 82 3 202 15 6 1 81 1 166 1805 30 101 0 0 170 185 429 82 3 428 15 5
 1 81 1 170 1804 30 168 0 0 174 166 430 82 3 429 15 4 1 81 1 174 1803 30 172 0 0
 178 170 431 82 3 430 15 3 1 81 1 178 1802 30 176 0 0 83 174 432 82 3 431 15 2 1
 81 1 83 1801 30 180 0 0 41 178 433 82 3 432 15 1 1 82 3 433 15 0 1 82 3 153 8 2
 1 81 1 137 1473 30 134 0 0 145 133 434 82 3 147 13 14 1 82 3 434 13 15 1 81 1 6
6 1475 30 64 0 0 133 70 435 82 3 138 13 16 1 81 1 70 1476 30 68 0 0 66 76 436 82
 3 435 13 0 0 81 1 76 1477 30 74 0 0 70 80 437 82 3 436 13 1 0 81 1 80 1478 30 7
8 0 0 76 24 438 82 3 437 13 2 0 81 1 24 1479 30 11 0 0 80 118 439 82 3 438 13 3
 0 82 3 439 13 17 1 17 35 0 34 28 28 72 117 112 0 36 -81 1 110 1481 30 98 0 0 11
8 108 440 82 3 120 13 18 1 82 3 440 13 19 1 81 1 31 1483 30 72 0 0 108 27 441 82
 3 111 13 20 1 82 3 441 13 4 0 82 3 84 13 7 0 82 3 42 13 6 0 82 3 33 13 5 0 19 1
8 175 0 1 0 10 6 0 S0 74 4 CI16 index_map_offset0 0 1 dCCZ20 16 5 0 0 378 392 14
 2 301 0 0 0 0 0 0 0 0 0 0 0 0 0 0 0 80 1 13 213 442 8040 0 0 0 0 3 5 0 0 0 TTTF
FFFFFFFFFFFFF2 83 3 15 .623529411764706 .666666666666667 .701960784313725 79 17
 442 SDL/TYSA_COLOUR_21 0 
